<svg xmlns="http://www.w3.org/2000/svg" xml:space="preserve" style="fill-rule:evenodd;clip-rule:evenodd;stroke-linejoin:round;stroke-miterlimit:2" viewBox="0 0 82 92"><path d="M37.332 15.689a12.58 12.58 0 0 1 3.222 12.3 25.39 25.39 0 0 1 13.125-3.632h.096a25.527 25.527 0 0 1 18.071 7.579 10.061 10.061 0 1 0 14.279-14.161A45.587 45.587 0 0 0 53.832 4.254h-.175a45.475 45.475 0 0 0-25.5 7.757h.282a12.535 12.535 0 0 1 8.893 3.685v-.007Z" style="fill:#d2fd78;fill-rule:nonzero" transform="translate(-7.94 -4.253)"/><path d="M78.804 65.225c-2.65 0-5.204 1.05-7.083 2.914a25.54 25.54 0 0 1-18.032 7.44h-.096a25.34 25.34 0 0 1-13.136-3.69 12.573 12.573 0 0 1-2.106 10.979 12.561 12.561 0 0 1-4.428 3.655 12.564 12.564 0 0 1-5.591 1.306H28a45.457 45.457 0 0 0 25.521 7.889h.175a45.502 45.502 0 0 0 32.2-13.279 10.053 10.053 0 0 0 2.218-10.974 10.062 10.062 0 0 0-9.303-6.229v-.011h-.007Z" style="fill:#87a150;fill-rule:nonzero" transform="translate(-7.94 -4.253)"/><path d="M19.425 66.35a12.451 12.451 0 0 1 8.893-3.682c1.153 0 2.296.153 3.407.464a25.527 25.527 0 0 1 .05-26.404 12.578 12.578 0 0 1-15.914-12.142v-.343a45.73 45.73 0 0 0-.122 51.264v-.264a12.46 12.46 0 0 1 3.686-8.893Z" style="fill:#acce64;fill-rule:nonzero" transform="translate(-7.94 -4.253)"/><path d="M28.439 14.239c-2.857 0-4.86 1.186-7.289 3.615-2.311 2.303-3.039 4.328-3.046 6.728A10.33 10.33 0 0 0 30.46 34.711a10.332 10.332 0 0 0 7.528-14.093 10.34 10.34 0 0 0-9.549-6.379Z" style="fill:#d2fd78;fill-rule:nonzero" transform="translate(-7.94 -4.253)"/><path d="M17.954 75.257c0 2.854 1.185 4.861 3.607 7.286 2.314 2.311 4.328 3.043 6.728 3.05a10.306 10.306 0 0 0 10.272-10.336 10.303 10.303 0 0 0-20.607.032v-.032Z" style="fill:#87a150;fill-rule:nonzero" transform="translate(-7.94 -4.253)"/></svg>