<svg width="100%" height="100%" viewBox="0 0 707 798" version="1.1" xmlns="http://www.w3.org/2000/svg" xmlns:xlink="http://www.w3.org/1999/xlink" xml:space="preserve" xmlns:serif="http://www.serif.com/" style="fill-rule:evenodd;clip-rule:evenodd;stroke-linejoin:round;stroke-miterlimit:2;">
    <g transform="matrix(2.76817,0,0,2.76817,0,0)">
        <path d="M87.333,200.777C72.027,186.371 63.024,166.564 63.024,144.055C63.024,121.546 72.027,101.739 86.433,87.333C99.038,74.729 99.038,54.921 86.433,42.316C73.828,29.711 54.021,29.711 41.416,42.316C16.206,68.426 0,104.44 0,144.055C0,183.67 16.206,219.684 42.316,245.794C54.921,258.399 74.729,258.399 87.333,245.794C99.038,233.189 99.038,213.381 87.333,200.777Z" style="fill:rgb(177,193,208);fill-rule:nonzero;"/>
        <path d="M87.333,87.333C101.739,72.027 121.546,63.024 144.055,63.024C166.564,63.024 186.371,72.027 200.777,86.433C213.381,99.038 233.189,99.038 245.794,86.433C258.399,73.828 258.399,54.021 245.794,41.416C219.684,16.206 183.67,0 144.055,0C104.44,0 68.426,16.206 42.316,42.316C29.711,54.921 29.711,74.729 42.316,87.333C54.921,99.038 74.729,99.038 87.333,87.333Z" style="fill:rgb(138,162,185);fill-rule:nonzero;"/>
        <path d="M200.777,200.777C186.371,216.082 166.564,225.086 144.055,225.086C121.546,225.086 101.739,216.082 87.333,201.677C74.729,189.072 54.921,189.072 42.316,201.677C29.711,214.282 29.711,234.089 42.316,246.694C68.426,271.904 104.44,288.11 144.055,288.11C183.67,288.11 219.684,271.904 245.794,245.794C258.399,233.189 258.399,213.381 245.794,200.777C233.189,189.072 213.381,189.072 200.777,200.777Z" style="fill:rgb(99,131,161);fill-rule:nonzero;"/>
        <circle cx="64.825" cy="64.825" r="31.512" style="fill:rgb(75,100,124);"/>
        <circle cx="64.825" cy="223.285" r="31.512" style="fill:rgb(59,80,99);"/>
    </g>
</svg>
