<svg width="100%" height="100%" viewBox="0 0 126 180" version="1.1" xmlns="http://www.w3.org/2000/svg" xmlns:xlink="http://www.w3.org/1999/xlink" xml:space="preserve" xmlns:serif="http://www.serif.com/" style="fill-rule:evenodd;clip-rule:evenodd;stroke-linejoin:round;stroke-miterlimit:2;">
    <g transform="matrix(1.38632,0,0,1.38632,0,-62.3039)">
        <path d="M35.982,83.484C35.982,77.938 40.533,75.804 48.072,75.804C58.88,75.804 72.533,79.076 83.342,84.907L83.342,51.484C71.538,46.791 59.876,44.942 48.072,44.942C19.2,44.942 0,60.018 0,85.192C0,124.444 54.044,118.187 54.044,135.112C54.044,141.653 48.356,143.787 40.391,143.787C28.587,143.787 13.511,138.951 1.564,132.409L1.564,166.258C14.791,171.947 28.16,174.364 40.391,174.364C69.973,174.364 90.311,159.716 90.311,134.258C90.169,91.876 35.982,99.413 35.982,83.484" style="fill:rgb(75,100,124);fill-rule:nonzero;"/>
    </g>
</svg>
