<svg xmlns="http://www.w3.org/2000/svg" xml:space="preserve" style="fill-rule:evenodd;clip-rule:evenodd;stroke-linejoin:round;stroke-miterlimit:2" viewBox="0 0 74 80"><path d="M141.8 115.5h-20.9c.1.5.3 1 .4 1.4.7 2.4 1.1 4.9 1.3 7.5.1 1 .1 2.1.1 3.1s0 2.1-.1 3.1c-.2 2.6-.6 5.1-1.3 7.5-.1.5-.3 1-.4 1.4h20.9c6.6 0 11.9-5.4 11.9-12s-5.3-12-11.9-12Z" style="fill:#87a150;fill-rule:nonzero" transform="translate(-86.8 -87.5)"/><path d="M122.6 130.6c.1-1 .1-2.1.1-3.1s0-2.1-.1-3.1c-.2-2.6-.6-5.1-1.3-7.5-.1-.5-.3-1-.4-1.4H88.6c-1.2 3.8-1.8 7.8-1.8 12s.6 8.2 1.8 12h32.3c.1-.5.3-1 .4-1.4.7-2.4 1.1-4.9 1.3-7.5Z" style="fill:#64763d;fill-rule:nonzero" transform="translate(-86.8 -87.5)"/><path d="M145.4 143.5h-26c-.8 1.8-1.7 3.5-2.7 5.1-1.5 2.5-3.3 4.7-5.3 6.8-.7.7-1.4 1.3-2.1 2-1.4 1.3-3 2.4-4.6 3.5 6.3 4.2 13.9 6.6 22 6.6 13.9 0 26.1-7.1 33.3-17.8-3.7-3.8-8.9-6.2-14.6-6.2Z" style="fill:#b2de5a;fill-rule:nonzero" transform="translate(-86.8 -87.5)"/><path d="M116.7 148.6c1-1.6 1.9-3.3 2.7-5.1H90.1c3.1 7.1 8.2 13.2 14.7 17.4 1.6-1.1 3.1-2.2 4.6-3.5.7-.6 1.4-1.3 2.1-2 1.9-2 3.7-4.3 5.2-6.8Z" style="fill:#a3ce4b;fill-rule:nonzero" transform="translate(-86.8 -87.5)"/><path d="M111.4 99.6c-.7-.7-1.4-1.3-2.1-2-1.4-1.3-3-2.4-4.6-3.5-6.4 4.2-11.5 10.3-14.7 17.4h29.3c-.8-1.8-1.7-3.5-2.7-5.1-1.4-2.5-3.2-4.8-5.2-6.8Z" style="fill:#acce64;fill-rule:nonzero" transform="translate(-86.8 -87.5)"/><path d="M126.7 87.5c-8.1 0-15.7 2.4-22 6.6 1.6 1.1 3.1 2.2 4.6 3.5.7.6 1.4 1.3 2.1 2 2 2.1 3.8 4.3 5.3 6.8 1 1.6 1.9 3.3 2.7 5.1h26c5.7 0 10.9-2.4 14.6-6.2-7.2-10.7-19.4-17.8-33.3-17.8Z" style="fill:#d2fd78;fill-rule:nonzero" transform="translate(-86.8 -87.5)"/></svg>