<svg width="100%" height="100%" viewBox="0 0 569 512" version="1.1" xmlns="http://www.w3.org/2000/svg" xmlns:xlink="http://www.w3.org/1999/xlink" xml:space="preserve" xmlns:serif="http://www.serif.com/" style="fill-rule:evenodd;clip-rule:evenodd;strokeLinejoin:round;stroke-miterlimit:2;">
    <g>
        <g>
            <g>
                <path id="Path" d="M285.5,201C255.4,201 231,225.4 231,255.5C231,285.6 255.4,310 285.5,310C315.6,310 340,285.6 340,255.5C340,225.4 315.6,201 285.5,201" style="fill:rgb(75,100,124);fill-rule:nonzero;"/>
                <path id="Shape" d="M568.96,255.994C568.96,213.208 529.338,175.681 466.252,150.985C467.095,145.424 467.857,139.922 468.399,134.521C474.622,73.042 459.809,28.669 426.71,9.554C389.677,-11.829 337.37,3.691 284.48,46.016C231.59,3.691 179.283,-11.829 142.25,9.554C109.151,28.669 94.338,73.042 100.561,134.521C101.102,139.922 101.845,145.444 102.708,151.025C97.449,153.033 92.291,155.161 87.333,157.39C31.011,182.709 0,217.765 0,255.994C0,298.781 39.622,336.307 102.708,361.004C101.845,366.565 101.102,372.067 100.561,377.468C94.338,438.947 109.151,483.32 142.25,502.435C153.63,508.888 166.524,512.187 179.604,511.992C210.956,511.992 247.568,495.488 284.48,465.973C321.372,495.488 358.004,511.992 389.396,511.992C402.475,512.184 415.369,508.885 426.75,502.435C459.849,483.32 474.662,438.947 468.439,377.468C467.898,372.067 467.135,366.565 466.292,361.004C529.378,336.347 569,298.761 569,255.994M389.155,27.103C397.565,26.9 405.878,28.937 413.242,33.006C436.224,46.277 446.541,82.278 441.523,131.77C441.182,135.143 440.78,138.557 440.299,141.99C414.067,134.088 387.206,128.452 360.011,125.145C343.525,103.224 325.193,82.756 305.214,63.966C336.587,39.712 366.032,27.103 389.135,27.103M378.356,310.206C368.205,327.831 357.151,344.92 345.238,361.405C325.045,363.48 304.759,364.512 284.46,364.497C264.168,364.511 243.888,363.479 223.702,361.405C211.821,344.919 200.8,327.83 190.684,310.206C180.533,292.629 171.307,274.534 163.045,255.994C171.307,237.455 180.533,219.359 190.684,201.783C200.784,184.229 211.771,167.201 223.602,150.764C243.825,148.638 264.146,147.579 284.48,147.592C304.772,147.58 325.052,148.612 345.238,150.684C357.109,167.146 368.136,184.201 378.276,201.783C388.419,219.364 397.645,237.458 405.915,255.994C397.645,274.53 388.419,292.625 378.276,310.206M419.725,290.127C426.095,307.504 431.325,325.277 435.381,343.335C417.78,348.824 399.837,353.15 381.668,356.285C388.573,345.871 395.264,335.036 401.74,323.778C408.143,312.655 414.145,301.431 419.805,290.208M246.363,390.378C258.848,391.141 271.594,391.583 284.5,391.583C297.406,391.583 310.232,391.141 322.737,390.378C310.881,404.583 298.108,417.998 284.5,430.534C270.922,418 258.182,404.585 246.363,390.378ZM187.312,356.245C169.137,353.124 151.188,348.811 133.579,343.335C137.619,325.306 142.828,307.559 149.175,290.208C154.755,301.431 160.736,312.655 167.24,323.778C173.743,334.902 180.467,345.865 187.312,356.285M149.175,221.761C142.851,204.474 137.655,186.795 133.619,168.835C151.184,163.352 169.086,159.013 187.211,155.844C180.347,166.225 173.622,176.987 167.139,188.21C160.656,199.434 154.735,210.517 149.074,221.761M322.617,121.591C310.132,120.828 297.386,120.386 284.38,120.386C271.48,120.386 258.768,120.788 246.243,121.591C258.061,107.384 270.801,93.969 284.38,81.434C297.992,93.966 310.766,107.38 322.617,121.591ZM401.7,188.21C395.197,176.94 388.473,166.097 381.528,155.684C399.744,158.819 417.734,163.152 435.381,168.654C431.332,186.681 426.122,204.427 419.785,221.781C414.205,210.557 408.204,199.334 401.72,188.23M127.517,131.79C122.439,82.318 132.816,46.297 155.779,33.026C163.145,28.963 171.456,26.926 179.865,27.123C202.968,27.123 232.413,39.732 263.786,63.986C243.794,82.79 225.448,103.271 208.949,125.205C181.762,128.528 154.904,134.143 128.661,141.99C128.2,138.557 127.778,135.164 127.457,131.79M98.453,182.106C101.544,180.768 104.695,179.429 107.907,178.091C114.221,204.736 122.782,230.797 133.499,255.994C122.762,281.241 114.193,307.357 107.887,334.059C56.743,313.077 27.097,284.004 27.097,255.994C27.097,229.451 53.191,202.526 98.453,182.106ZM155.779,478.963C132.816,465.691 122.439,429.671 127.517,380.198C127.838,376.825 128.26,373.432 128.721,369.978C154.954,377.879 181.815,383.514 209.009,386.824C225.5,408.753 243.832,429.233 263.806,448.043C220.069,481.834 180.106,492.978 155.839,478.963M441.503,380.198C446.521,429.691 436.204,465.691 413.221,478.963C388.975,493.018 348.991,481.834 305.274,448.043C325.241,429.233 343.567,408.752 360.051,386.824C387.246,383.517 414.107,377.881 440.339,369.978C440.82,373.432 441.222,376.825 441.563,380.198M461.193,334.018C454.869,307.333 446.294,281.231 435.562,255.994C446.29,230.744 454.858,204.629 461.173,177.93C512.216,198.912 541.943,227.985 541.943,255.994C541.943,284.004 512.297,313.077 461.153,334.059" style="fill:rgb(75,100,124);fill-rule:nonzero;"/>
            </g>
        </g>
    </g>
</svg>
