<svg width="100%" height="100%" viewBox="0 0 201 170" version="1.1" xmlns="http://www.w3.org/2000/svg" xmlns:xlink="http://www.w3.org/1999/xlink" xml:space="preserve" xmlns:serif="http://www.serif.com/" style="fill-rule:evenodd;clip-rule:evenodd;stroke-linejoin:round;stroke-miterlimit:2;">
    <path d="M100.055,170C97.865,170 81.855,157.2 78.755,153.55C76.315,157.28 72.315,161.51 72.315,161.51C61.265,155.94 47.145,141.45 44.485,136.38C41.865,131.38 32.355,73.8 32.095,57.08C31.755,47.67 37.945,28.59 100.055,28.59C162.165,28.59 168.345,47.67 168.015,57.08C167.765,73.8 158.255,131.38 155.625,136.38C152.965,141.45 138.845,155.94 127.795,161.51C127.795,161.51 123.795,157.28 121.355,153.55C118.255,157.2 102.245,170 100.055,170Z" style="fill:rgb(163,206,75);fill-rule:nonzero;"/>
    <path d="M100.055,132.92C79.325,132.92 66.095,121.97 66.095,121.97L68.005,95.3L46.255,93.36L42.345,61.81L157.775,61.81L153.865,93.36L132.115,95.3L134.025,121.97C134.025,121.97 120.795,132.92 100.065,132.92L100.055,132.92Z" style="fill:rgb(135,161,80);fill-rule:nonzero;"/>
    <path d="M121.535,75.79L200.055,48.61C195.385,20.67 170.895,0 170.895,0L170.895,30.78L156.355,34.53L147.245,23.56L139.445,38.9L100.065,49.06L60.685,38.9L52.885,23.56L43.775,34.53L29.235,30.78L29.235,0C29.235,0 4.725,20.67 0.055,48.61L78.575,75.79L75.775,113.18C82.475,114.88 89.525,116.57 100.055,116.57C110.585,116.57 117.625,114.88 124.325,113.18L121.525,75.79L121.535,75.79Z" style="fill:rgb(210,253,120);fill-rule:nonzero;"/>
</svg>
