<svg width="100%" height="100%" viewBox="0 0 79 103" version="1.1" xmlns="http://www.w3.org/2000/svg" xmlns:xlink="http://www.w3.org/1999/xlink" xml:space="preserve" xmlns:serif="http://www.serif.com/" style="fill-rule:evenodd;clip-rule:evenodd;stroke-linejoin:round;stroke-miterlimit:2;">
    <g transform="matrix(1,0,0,1,-0.29,-0.58)">
        <path d="M8.558,13.779C8.558,27.559 17.115,35.825 34.23,40.177L52.36,44.383C68.605,48.154 78.468,57.437 78.468,72.521C78.613,79.048 76.438,85.43 72.521,90.651C72.521,75.567 64.689,67.445 45.978,62.513L28.138,58.453C13.78,55.26 2.756,47.572 2.756,31.183C2.756,24.946 4.786,18.709 8.558,13.778" style="fill:rgb(210,253,120);fill-rule:nonzero;"/>
    </g>
    <g transform="matrix(1,0,0,1,-0.29,-0.58)">
        <path d="M61.353,68.75C69.04,73.682 72.521,80.644 72.521,90.652C65.994,98.919 54.826,103.415 41.627,103.415C19.436,103.415 3.627,92.392 0.29,73.392L21.611,73.392C24.367,82.094 31.619,86.155 41.482,86.155C53.231,86.3 61.208,79.918 61.353,68.75M8.558,13.634C14.794,5.512 25.528,0.58 38.58,0.58C61.352,0.58 74.406,12.619 77.742,29.444L57.147,29.444C54.827,22.772 49.169,17.55 38.871,17.55C27.703,17.695 20.161,24.077 19.726,34.23C12.252,30.108 8.267,22.046 8.558,13.634Z" style="fill:rgb(235,254,189);fill-rule:nonzero;"/>
    </g>
</svg>
