<svg xmlns="http://www.w3.org/2000/svg" xml:space="preserve" style="fill-rule:evenodd;clip-rule:evenodd;stroke-linejoin:round;stroke-miterlimit:2" viewBox="0 0 256 230"><path d="m158 142.5-5 8.5a8.307 8.307 0 0 1-7.1 4.2h-37.6c-3 0-5.7-1.6-7.2-4.2l-5-8.5H158Zm13.7-23.9-8.6 15H91l-8.7-15h89.4Zm-8.3-23.3 8.3 14.5H82.4l8.4-14.5h72.6Zm-17.5-22c3 0 5.7 1.5 7.2 4l5.2 9.1H95.9l5.2-9a8.309 8.309 0 0 1 7.2-4.2h37.6v.1Z" style="fill:#434e2b;fill-rule:nonzero"/><path d="M53.5 69.3c-4.1-20.3-5-35.8-2.3-47a30.2 30.2 0 0 1 9-16.1A25.51 25.51 0 0 1 77.4 0c11 0 22.6 5 35 14.6 5 3.9 10.2 8.6 15.7 14l1.4-1.5C145 13.4 158 4.9 169.1 1.6c6.6-2 12.7-2.2 18.4-.3 6 2 10.7 6.2 14 12 5.5 9.5 7 22 5 37.6-1 6.3-2.4 13.2-4.4 20.7.8 0 1.5.2 2.3.5 19.5 6.4 33.3 13.4 41.7 21.4 5 4.7 8.2 10 9.4 15.8 1.3 6.1 0 12.3-3.3 18.1-5.5 9.5-15.6 17-30 23-5.8 2.4-12.4 4.6-19.7 6.6l.8 2.3c4.1 20.3 5 35.7 2.3 47a30.2 30.2 0 0 1-9 16.1 25.507 25.507 0 0 1-17.3 6.2c-11 0-22.6-5-35-14.6-5-4-10.4-8.7-15.9-14.2-.5.9-1.2 1.7-2 2.4C111 216 98 224.4 86.9 227.7c-6.6 2-12.7 2.2-18.4.3-6-2-10.7-6.2-14-12-5.5-9.5-7-22-5-37.6 1-6.5 2.5-13.7 4.6-21.5-.8 0-1.7-.2-2.5-.5C32.1 149.9 18.3 143 9.9 135c-5-4.7-8.2-10-9.4-15.8-1.3-6.2 0-12.3 3.3-18.1 5.5-9.6 15.6-17.1 30-23 6-2.5 12.8-4.8 20.4-6.8l-.7-2Z" style="fill:#242919;fill-rule:nonzero"/><path d="M189.6 161.3c2-.3 3.8 1 4.3 2.8v.2l.2 1c6.7 35.3 2 53-14.2 53-15.8 0-36-15.1-60.4-45.2a3.699 3.699 0 0 1-.803-2.301 3.717 3.717 0 0 1 3.603-3.699h1.4a354.044 354.044 0 0 0 66-5.8h-.1Zm-111-26.6h.1l.7 1.2a358.03 358.03 0 0 0 38.4 54.5 3.717 3.717 0 0 1-.3 5.1v.1l-1 .7c-27.2 23.4-45 28-53.2 14-8-13.7-5-38.7 8.8-75a3.706 3.706 0 0 1 3.41-2.265c1.243 0 2.406.627 3.09 1.665Zm124.9-52h.1l1 .3c33.7 11.7 46.6 24.6 38.5 38.7-8 13.7-31 23.7-69 30a3.72 3.72 0 0 1-.706.068c-2.03 0-3.7-1.67-3.7-3.7 0-.656.175-1.301.506-1.868A359.609 359.609 0 0 0 199 84.9a3.714 3.714 0 0 1 4.4-2.3h.1v.1Zm-119-6c1.7 1 2.3 3.3 1.3 5A359.609 359.609 0 0 0 57 143a3.715 3.715 0 0 1-4.5 2.3h-.1l-1-.4c-33.7-11.7-46.6-24.6-38.5-38.6 8-13.8 31-23.8 69-30 1-.2 1.8 0 2.5.4h.1ZM192.6 19c8 13.7 5 38.7-8.8 75a3.706 3.706 0 0 1-3.41 2.265 3.704 3.704 0 0 1-3.09-1.665h-.1l-.7-1.2a358.03 358.03 0 0 0-38.4-54.5 3.717 3.717 0 0 1 .3-5.1v-.1l1-.7c27.2-23.4 45-28 53.2-14ZM77.4 10.6c15.9 0 36 15 60.4 45.1.522.655.806 1.468.806 2.305A3.716 3.716 0 0 1 135.1 61.7h-1.4a354.044 354.044 0 0 0-66 5.8c-2 .3-3.8-.9-4.2-2.8v-.1l-.2-1.1c-6.7-35.3-2-53 14.1-53v.1Z" style="fill:#d2fd78;fill-rule:nonzero"/><path d="M111.3 73.7h31.6c4.6 0 8.9 2.4 11.2 6.4l15.8 27.7c2.3 4 2.3 8.8 0 12.8l-15.8 27.6c-2.3 4-6.6 6.5-11.2 6.5h-31.6c-4.6 0-8.9-2.5-11.2-6.5l-15.8-27.6c-2.3-4-2.3-8.9 0-12.8L100 80c2.3-4 6.6-6.4 11.2-6.4l.1.1ZM138 82c4.6 0 8.8 2.5 11.1 6.5l11.1 19.3c2.3 4 2.3 8.8 0 12.8l-11 19.3c-2.4 4-6.6 6.5-11.2 6.5h-22c-4.6 0-8.9-2.5-11.2-6.5l-11-19.3c-2.3-4-2.3-8.9 0-12.8l11-19.3c2.3-4 6.6-6.5 11.2-6.5h22Zm-5.1 9.1h-11.7c-4.6 0-8.9 2.5-11.2 6.5l-5.8 10.2c-2.3 4-2.3 8.8 0 12.8l5.8 10.2c2.3 4 6.6 6.4 11.2 6.4h11.6c4.6 0 8.8-2.4 11.1-6.4l5.9-10.2c2.3-4 2.3-8.9 0-12.8L144 97.6c-2.3-4-6.5-6.5-11.1-6.5Zm-5.1 8.8c4.6 0 8.8 2.4 11.1 6.4l.9 1.5c2.3 4 2.3 8.8 0 12.8l-.9 1.5c-2.3 4-6.5 6.4-11.1 6.4h-1.6c-4.6 0-8.9-2.4-11.2-6.4l-.8-1.5c-2.3-4-2.3-8.9 0-12.8l.8-1.5c2.3-4 6.6-6.4 11.2-6.4h1.6Zm-.8 8.6c-3.127 0-5.7 2.573-5.7 5.7 0 3.127 2.573 5.7 5.7 5.7 3.127 0 5.7-2.573 5.7-5.7 0-3.127-2.573-5.7-5.7-5.7Zm-46.5 5.7h10.3" style="fill:#fff;fill-rule:nonzero"/></svg>