<svg width="100%" height="100%" viewBox="0 0 256 366" version="1.1" xmlns="http://www.w3.org/2000/svg" xmlns:xlink="http://www.w3.org/1999/xlink" xml:space="preserve" xmlns:serif="http://www.serif.com/" style="fill-rule:evenodd;clip-rule:evenodd;stroke-linejoin:round;stroke-miterlimit:2;">
    <path d="M182.022,9.147C185.004,12.849 186.524,17.844 189.565,27.834L256,246.074C231.046,233.124 204.262,224.056 176.574,219.183L133.318,73.008C132.612,70.623 130.406,68.976 127.92,68.976C125.426,68.976 123.216,70.632 122.516,73.025L79.784,219.11C51.97,223.96 25.063,233.042 -0,246.04L66.76,27.783C69.811,17.811 71.337,12.824 74.319,9.129C76.951,5.867 80.376,3.334 84.265,1.771C88.67,0 93.885,0 104.314,0L151.997,0C162.44,0 167.661,0 172.071,1.774C175.963,3.341 179.389,5.879 182.021,9.147L182.022,9.147Z" style="fill:rgb(75,100,124);fill-rule:nonzero;"/>
    <path d="M189.972,256.46C179.02,265.824 157.16,272.211 131.98,272.211C101.076,272.211 75.173,262.59 68.3,249.651C65.842,257.066 65.291,265.554 65.291,270.975C65.291,270.975 63.672,297.598 82.189,316.115C82.189,306.5 89.984,298.705 99.599,298.705C116.079,298.705 116.059,313.083 116.045,324.748L116.044,325.789C116.044,343.494 126.864,358.672 142.254,365.069C139.885,360.194 138.658,354.842 138.666,349.422C138.666,332.536 148.579,326.249 160.101,318.942C169.268,313.128 179.454,306.668 186.473,293.71C190.253,286.73 192.227,278.913 192.215,270.975C192.215,265.915 191.429,261.037 189.972,256.459L189.972,256.46Z" style="fill:rgb(129,146,163);fill-rule:nonzero;"/>
</svg>
