<svg width="100%" height="100%" viewBox="0 0 256 549" version="1.1" xmlns="http://www.w3.org/2000/svg" xmlns:xlink="http://www.w3.org/1999/xlink" xml:space="preserve" xmlns:serif="http://www.serif.com/" style="fill-rule:evenodd;clip-rule:evenodd;stroke-linejoin:round;stroke-miterlimit:2;">
    <path d="M175.622,61.108C152.612,33.807 132.797,6.078 128.749,0.32C128.555,0.116 128.285,0 128.003,0C127.721,0 127.451,0.116 127.257,0.32C123.209,6.079 103.394,33.807 80.383,61.108C-117.124,313.004 111.491,482.998 111.491,482.998L113.408,484.278C115.112,510.512 119.374,548.266 119.374,548.266L136.419,548.266C136.419,548.266 140.679,510.726 142.384,484.279L144.302,482.785C144.515,482.999 373.13,313.005 175.622,61.108ZM127.896,479.158C127.896,479.158 117.669,470.414 114.899,465.936L114.899,465.508L127.257,191.216C127.257,190.363 128.536,190.363 128.536,191.216L140.893,465.508L140.893,465.936C138.123,470.414 127.896,479.159 127.896,479.159L127.896,479.158Z" style="fill:rgb(210,253,120);fill-rule:nonzero;"/>
</svg>
