<svg width="100%" height="100%" viewBox="0 0 256 256" version="1.1" xmlns="http://www.w3.org/2000/svg" xmlns:xlink="http://www.w3.org/1999/xlink" xml:space="preserve" xmlns:serif="http://www.serif.com/" style="fill-rule:evenodd;clip-rule:evenodd;stroke-linejoin:round;stroke-miterlimit:2;">
    <path d="M0,44.139C0,19.762 19.762,0 44.139,0L211.86,0C236.238,0 256,19.762 256,44.139L256,186.788C256,212.004 224.085,222.948 208.612,203.044L160.22,140.793L160.22,216.277C160.22,238.216 142.436,256 120.498,256L44.138,256C19.763,256 0,236.238 0,211.861L0,44.139ZM44.139,35.314C39.26,35.314 35.314,39.26 35.314,44.132L35.314,211.862C35.314,216.74 39.26,220.693 44.132,220.693L121.82,220.693C124.26,220.693 124.907,218.716 124.907,216.277L124.907,115.057C124.907,89.835 156.821,78.891 172.302,98.802L220.693,161.045L220.693,44.14C220.693,39.261 221.148,35.315 216.277,35.315L44.14,35.315L44.139,35.314Z" style="fill:rgb(163,206,75);fill-rule:nonzero;"/>
    <path d="M0,44.139C0,19.762 19.762,0 44.139,0L211.86,0C236.238,0 256,19.762 256,44.139L256,186.788C256,212.004 224.085,222.948 208.612,203.044L160.22,140.793L160.22,216.277C160.22,238.216 142.436,256 120.498,256L44.138,256C19.763,256 0,236.238 0,211.861L0,44.139ZM44.139,35.314C39.26,35.314 35.314,39.26 35.314,44.132L35.314,211.862C35.314,216.74 39.26,220.693 44.132,220.693L121.82,220.693C124.26,220.693 124.907,218.716 124.907,216.277L124.907,115.057C124.907,89.835 156.821,78.891 172.302,98.802L220.693,161.045L220.693,44.14C220.693,39.261 221.148,35.315 216.277,35.315L44.14,35.315L44.139,35.314Z" style="fill:url(#_Linear1);fill-rule:nonzero;"/>
    <path d="M0,44.139C0,19.762 19.762,0 44.139,0L211.86,0C236.238,0 256,19.762 256,44.139L256,186.788C256,212.004 224.085,222.948 208.612,203.044L160.22,140.793L160.22,216.277C160.22,238.216 142.436,256 120.498,256L44.138,256C19.763,256 0,236.238 0,211.861L0,44.139ZM44.139,35.314C39.26,35.314 35.314,39.26 35.314,44.132L35.314,211.862C35.314,216.74 39.26,220.693 44.132,220.693L121.82,220.693C124.26,220.693 124.907,218.716 124.907,216.277L124.907,115.057C124.907,89.835 156.821,78.891 172.302,98.802L220.693,161.045L220.693,44.14C220.693,39.261 221.148,35.315 216.277,35.315L44.14,35.315L44.139,35.314Z" style="fill:url(#_Linear2);fill-rule:nonzero;"/>
    <path d="M211.861,0C236.238,0 256,19.762 256,44.139L256,186.788C256,212.004 224.085,222.948 208.612,203.044L160.22,140.793L160.22,216.277C160.22,238.216 142.436,256 120.498,256C122.917,256 124.907,254.01 124.907,251.591L124.907,115.058C124.907,89.835 156.821,78.891 172.302,98.802L220.693,161.045L220.693,8.825C220.693,3.954 216.74,0 211.861,0Z" style="fill:rgb(210,253,120);fill-rule:nonzero;"/>
    <defs>
        <linearGradient id="_Linear1" x1="0" y1="0" x2="1" y2="0" gradientUnits="userSpaceOnUse" gradientTransform="matrix(-225.103,-256,256,-225.103,256,256)"><stop offset="0" style="stop-color:rgb(218,238,177);stop-opacity:1"/><stop offset="1" style="stop-color:rgb(143,249,134);stop-opacity:0"/></linearGradient>
        <linearGradient id="_Linear2" x1="0" y1="0" x2="1" y2="0" gradientUnits="userSpaceOnUse" gradientTransform="matrix(-152.056,-59.1437,59.1437,-152.056,256,256)"><stop offset="0" style="stop-color:black;stop-opacity:0.36"/><stop offset="1" style="stop-color:rgb(26,26,26);stop-opacity:0"/></linearGradient>
    </defs>
</svg>
