<svg width="100%" height="100%" viewBox="0 0 111 58" version="1.1" xmlns="http://www.w3.org/2000/svg" xmlns:xlink="http://www.w3.org/1999/xlink" xml:space="preserve" xmlns:serif="http://www.serif.com/" style="fill-rule:evenodd;clip-rule:evenodd;stroke-linejoin:round;stroke-miterlimit:2;">
    <g transform="matrix(0.87303,0.48767,-0.49721,0.86763,18.5517,19.0365)">
        <path d="M9.631,4.816L9.631,36.036C9.631,38.694 7.473,40.852 4.816,40.852L4.815,40.852C2.158,40.852 0,38.694 0,36.036L0,4.816C0,2.158 2.158,0 4.815,0L4.816,0C7.473,0 9.631,2.158 9.631,4.816Z" style="fill:rgb(75,100,124);"/>
    </g>
    <g transform="matrix(0.87303,0.48767,-0.49721,0.86763,52.0117,-1.73351)">
        <path d="M9.631,4.816L9.631,36.036C9.631,38.694 7.473,40.852 4.816,40.852L4.815,40.852C2.158,40.852 0,38.694 0,36.036L0,4.816C0,2.158 2.158,0 4.815,0L4.816,0C7.473,0 9.631,2.158 9.631,4.816Z" style="fill:rgb(75,100,124);"/>
    </g>
    <g transform="matrix(0.87303,0.48767,-0.49721,0.86763,103.496,-1.73251)">
        <path d="M9.631,4.816L9.631,36.036C9.631,38.694 7.473,40.852 4.816,40.852L4.815,40.852C2.158,40.852 0,38.694 0,36.036L0,4.816C0,2.158 2.158,0 4.815,0L4.816,0C7.473,0 9.631,2.158 9.631,4.816Z" style="fill:rgb(75,100,124);"/>
    </g>
    <g transform="matrix(0.87303,0.48767,-0.49721,0.86763,70.0287,19.0365)">
        <path d="M9.631,4.816L9.631,36.036C9.631,38.694 7.473,40.852 4.816,40.852L4.815,40.852C2.158,40.852 0,38.694 0,36.036L0,4.816C0,2.158 2.158,0 4.815,0L4.816,0C7.473,0 9.631,2.158 9.631,4.816Z" style="fill:rgb(75,100,124);"/>
    </g>
</svg>
