<svg width="100%" height="100%" viewBox="0 0 256 310" version="1.1" xmlns="http://www.w3.org/2000/svg" xmlns:xlink="http://www.w3.org/1999/xlink" xml:space="preserve" xmlns:serif="http://www.serif.com/" style="fill-rule:evenodd;clip-rule:evenodd;strokeLinejoin:round;stroke-miterlimit:2;">
    <path d="M254.313,235.519L148,9.749C145.312,4.097 139.723,0.361 133.473,0.037C127.209,-0.383 121.208,2.728 117.94,8.089L2.633,194.848C-0.94,200.595 -0.865,207.923 2.826,213.595L59.2,300.896C63.568,307.607 71.888,310.667 79.563,308.385L243.162,259.993C248.143,258.537 252.255,254.987 254.422,250.271C256.559,245.578 256.522,240.174 254.321,235.511L254.313,235.519ZM230.511,245.202L91.688,286.252C87.453,287.512 83.388,283.841 84.269,279.567L133.867,42.083C134.794,37.64 140.93,36.936 142.87,41.048L234.684,236.021C235.095,236.9 235.307,237.858 235.307,238.828C235.307,241.777 233.339,244.388 230.504,245.201L230.511,245.201L230.511,245.202Z" style="fill:rgb(75,100,124);fill-rule:nonzero;"/>
</svg>
