<svg width="100%" height="100%" viewBox="0 0 201 170" version="1.1" xmlns="http://www.w3.org/2000/svg" xmlns:xlink="http://www.w3.org/1999/xlink" xml:space="preserve" xmlns:serif="http://www.serif.com/" style="fill-rule:evenodd;clip-rule:evenodd;stroke-linejoin:round;stroke-miterlimit:2;">
    <path d="M200.035,48.61C195.365,20.67 170.875,0 170.875,0L170.875,30.78L156.335,34.53L147.225,23.56L142.415,33.02C132.495,30.32 118.835,28.58 100.045,28.58C81.255,28.58 67.595,30.33 57.675,33.02L52.865,23.56L43.755,34.53L29.215,30.78L29.215,0C29.215,0 4.725,20.67 0.055,48.61L32.195,59.73C33.245,79.16 41.985,131.61 44.485,136.37C47.145,141.44 61.265,155.93 72.315,161.5C72.315,161.5 76.315,157.27 78.755,153.54C81.855,157.19 97.865,169.99 100.055,169.99C102.245,169.99 118.255,157.2 121.355,153.54C123.795,157.27 127.795,161.5 127.795,161.5C138.845,155.93 152.965,141.44 155.625,136.37C158.125,131.61 166.865,79.16 167.915,59.73L200.055,48.61L200.035,48.61ZM153.845,93.35L132.095,95.29L134.005,121.96C134.005,121.96 120.775,132.91 100.045,132.91C79.315,132.91 66.085,121.96 66.085,121.96L67.995,95.29L46.245,93.35L42.525,63.31L78.575,75.79L75.775,113.18C82.475,114.88 89.525,116.57 100.055,116.57C110.585,116.57 117.625,114.88 124.325,113.18L121.525,75.79L157.575,63.31L153.855,93.35L153.845,93.35Z" style="fill:rgb(75,100,124);fill-rule:nonzero;"/>
</svg>
