<svg width="10px" height="12px" version="1.1" xmlns="http://www.w3.org/2000/svg" xmlns:xlink="http://www.w3.org/1999/xlink" xml:space="preserve" xmlns:serif="http://www.serif.com/" style="fill-rule:evenodd;clip-rule:evenodd;stroke-linejoin:round;stroke-miterlimit:2;">
    <g transform="matrix(1,0,0,1,-2.999,-1.999)">
        <path d="M7.146,2.146C7.24,2.052 7.367,1.999 7.5,1.999C7.633,1.999 7.76,2.052 7.854,2.146L11.854,6.146C11.948,6.24 12.001,6.367 12.001,6.5C12.001,6.775 11.775,7.001 11.5,7.001C11.367,7.001 11.24,6.948 11.146,6.854L8,3.707L8,12.5C8,12.774 7.774,13 7.5,13C7.226,13 7,12.774 7,12.5L7,3.707L3.854,6.854C3.76,6.948 3.633,7.001 3.5,7.001C3.225,7.001 2.999,6.775 2.999,6.5C2.999,6.367 3.052,6.24 3.146,6.146L7.146,2.146Z" style="fill:rgb(210,253,120);"/>
    </g>
</svg>