<svg width="100%" height="100%" viewBox="0 0 10 12" version="1.1" xmlns="http://www.w3.org/2000/svg" xmlns:xlink="http://www.w3.org/1999/xlink" xml:space="preserve" xmlns:serif="http://www.serif.com/" style="fill-rule:evenodd;clip-rule:evenodd;stroke-linejoin:round;stroke-miterlimit:2;">
    <g transform="matrix(1,0,0,1,-2.99937,-1.99911)">
        <path d="M11.146,6.854C11.24,6.948 11.367,7.001 11.5,7.001C11.775,7.001 12.001,6.775 12.001,6.5C12.001,6.367 11.948,6.24 11.854,6.146L7.854,2.146C7.76,2.052 7.633,1.999 7.5,1.999C7.367,1.999 7.24,2.052 7.146,2.146L3.146,6.146C3.052,6.24 2.999,6.367 2.999,6.5C2.999,6.775 3.225,7.001 3.5,7.001C3.633,7.001 3.76,6.948 3.854,6.854L7.5,3.207L11.146,6.854ZM11.146,12.854C11.24,12.948 11.367,13.001 11.5,13.001C11.775,13.001 12.001,12.775 12.001,12.5C12.001,12.367 11.948,12.24 11.854,12.146L7.854,8.146C7.76,8.052 7.633,7.999 7.5,7.999C7.367,7.999 7.24,8.052 7.146,8.146L3.146,12.146C3.052,12.24 2.999,12.367 2.999,12.5C2.999,12.775 3.225,13.001 3.5,13.001C3.633,13.001 3.76,12.948 3.854,12.854L7.5,9.207L11.146,12.854Z" style="fill:rgb(75,100,124);"/>
    </g>
</svg>
