<svg width="100%" height="100%" viewBox="0 0 256 256" version="1.1" xmlns="http://www.w3.org/2000/svg" xmlns:xlink="http://www.w3.org/1999/xlink" xml:space="preserve" xmlns:serif="http://www.serif.com/" style="fill-rule:evenodd;clip-rule:evenodd;strokeLinejoin:round;stroke-miterlimit:2;">
    <path d="M218.123,218.127L180.192,218.127L180.192,158.724C180.192,144.559 179.939,126.324 160.464,126.324C140.708,126.324 137.685,141.758 137.685,157.693L137.685,218.123L99.755,218.123L99.755,95.967L136.168,95.967L136.168,112.661L136.678,112.661C144.092,99.983 157.929,92.383 172.606,92.928C211.051,92.928 218.139,118.216 218.139,151.114L218.123,218.127ZM56.955,79.27C44.798,79.272 34.941,69.418 34.939,57.261C34.937,45.104 44.79,35.247 56.947,35.245C69.104,35.242 78.961,45.096 78.963,57.253C78.965,69.329 69.031,79.267 56.955,79.27M75.921,218.128L37.95,218.128L37.95,95.967L75.92,95.967L75.92,218.127L75.921,218.128ZM237.033,0.018L18.89,0.018C8.58,-0.098 0.125,8.161 -0.001,18.471L-0.001,237.524C0.121,247.839 8.575,256.106 18.889,255.998L237.033,255.998C247.369,256.126 255.856,247.859 255.999,237.524L255.999,18.454C255.852,8.124 247.364,-0.134 237.033,0.001" style="fill:rgb(75,100,124);fill-rule:nonzero;"/>
</svg>
